<svg xmlns="http://www.w3.org/2000/svg" xmlns:xlink="http://www.w3.org/1999/xlink" xmlns:lucid="lucid" width="1960.01" height="1312"><g transform="translate(-2919.9937129100217 -548)" lucid:page-tab-id="0_0"><path d="M3540 657.1h500V1840h-500z" stroke="#000" stroke-width="2" fill="#fff"/><use xlink:href="#a" transform="matrix(1,0,0,1,3545,662.0925445103858) translate(0 14.4)"/><path d="M3440 1000h1420v780H3440z" stroke="#000" stroke-width="2" fill="#fff"/><use xlink:href="#b" transform="matrix(1,0,0,1,3445,1005) translate(0 769.04001536)"/><path d="M3640 605c0-2.76 2.23-5 5-5h110c2.76 0 5 2.24 5 5v50c0 2.76-2.24 5-5 5h-110c-2.77 0-5-2.24-5-5z" stroke="#000" stroke-width="2" fill="#c1e4f7"/><use xlink:href="#c" transform="matrix(1,0,0,1,3644.9958086324186,605) translate(20.525 30.025)"/><use xlink:href="#d" transform="matrix(1,0,0,1,3644.9958086324186,605) translate(59.525 30.025)"/><path d="M3659.5 710.6h81v59.32h-81z" stroke="#000" stroke-width="2" fill="#fff"/><use xlink:href="#e" transform="matrix(1,0,0,1,3664.496856474314,715.6015393175074) translate(16.5 30.025)"/><path d="M3700 662v29.1" stroke="#000" stroke-width="2" fill="none"/><path d="M3701 662.03h-2V661h2z"/><path d="M3700 706.37l-4.64-14.27h9.27z" stroke="#000" stroke-width="2"/><use xlink:href="#f" transform="matrix(1,0,0,1,3707.996856474314,663.7007696587538) translate(0 14.4)"/><use xlink:href="#g" transform="matrix(1,0,0,1,3707.996856474314,663.7007696587538) translate(0 36)"/><path d="M3760 820.52h81v59.3h-81z" stroke="#000" stroke-width="2" fill="#fff"/><use xlink:href="#h" transform="matrix(1,0,0,1,3764.9979043162093,825.5179896142433) translate(10.5 30.025)"/><path d="M3600 1097.66h137.73v98.68H3600z" stroke="#000" stroke-width="2" fill="#fff"/><use xlink:href="#i" transform="matrix(1,0,0,1,3605,1102.6574554896142) translate(27.049999999999997 47.775)"/><path d="M3700.45 1095.66l-.4-196.33" stroke="#000" stroke-width="2" fill="none"/><path d="M3701.45 1096.66h-2v-1.03h2z"/><path d="M3700 884.07l4.67 14.25-9.27.02z" stroke="#000" stroke-width="2"/><use xlink:href="#j" transform="matrix(1,0,0,1,3708.1744924861596,943.2822214068833) translate(0 14.4)"/><use xlink:href="#g" transform="matrix(1,0,0,1,3708.1744924861596,943.2822214068833) translate(0 36)"/><path d="M3900 820.52h81v59.3h-81z" stroke="#000" stroke-width="2" fill="#fff"/><use xlink:href="#k" transform="matrix(1,0,0,1,3905,825.5179896142433) translate(18.525 30.025)"/><path d="M3742.5 740.26h738" stroke="#000" stroke-width="2" fill="none"/><path d="M3742.52 741.26h-1.02v-2h1.02z"/><path d="M4495.76 740.26l-14.26 4.63v-9.28z" stroke="#000" stroke-width="2"/><path d="M3739.73 1147h140.77" stroke="#000" stroke-width="2" fill="none"/><path d="M3739.76 1148h-1.03v-2h1.03z"/><path d="M3895.76 1147l-14.26 4.64v-9.28z" stroke="#000" stroke-width="2"/><use xlink:href="#l" transform="matrix(1,0,0,1,3833.7082296973103,1151.0000000000002) translate(0 14.4)"/><use xlink:href="#m" transform="matrix(1,0,0,1,3833.7082296973103,1151.0000000000002) translate(0 36)"/><path d="M4196 1019.2h220V1199h-220z" stroke="#000" stroke-width="2" fill="#fff"/><use xlink:href="#n" transform="matrix(1,0,0,1,4201,1024.1850890207716) translate(156.05 168.632704)"/><path d="M4214 1118.7h81v59.3h-81z" stroke="#000" stroke-width="2" fill="#fff"/><use xlink:href="#n" transform="matrix(1,0,0,1,4219.002095683791,1123.6850890207716) translate(8.524999999999999 30.025)"/><path d="M4015.46 1147.94l179.04.36M4015.5 1147.94h-1.04" stroke="#000" stroke-width="2" fill="none"/><path d="M4209.77 1148.34l-14.28 4.6v-9.27z" stroke="#000" stroke-width="2"/><path d="M4314 1038.34h81v59.32h-81z" stroke="#000" stroke-width="2" fill="#fff"/><use xlink:href="#o" transform="matrix(1,0,0,1,4319.002095683791,1043.3425445103858) translate(4.549999999999997 30.025)"/><path d="M4254.54 1116.7l.14-3.23.5-3.98.83-3.8 1.13-3.6 1.4-3.5 1.72-3.36 2.03-3.27 2.36-3.16 2.72-3.05 3.12-2.95 3.53-2.82 3.98-2.64 4.43-2.44 4.9-2.16 5.32-1.83 2.1-.5" stroke="#000" stroke-width="2" fill="none"/><path d="M4255.54 1116.7l-.04 1h-2l.05-1.08z"/><path d="M4309.8 1068.42l-13.55 6.44-1.2-9.2z" stroke="#000" stroke-width="2"/><use xlink:href="#p" transform="matrix(1,0,0,1,4213.138428989269,1066.2353079463878) translate(0 14.4)"/><use xlink:href="#q" transform="matrix(1,0,0,1,4213.138428989269,1066.2353079463878) translate(0 36)"/><path d="M3600 1300.56h136.48v98.7H3600z" stroke="#000" stroke-width="2" fill="#fff"/><use xlink:href="#r" transform="matrix(1,0,0,1,3605,1305.5649109792284) translate(23.549999999999997 47.775)"/><path d="M3737.7 1348.92l37.95-181.84 11.18-70.44 6.9-59.82 4.46-61.6 2.2-73.64v-2.25" stroke="#000" stroke-width="2" fill="none"/><path d="M3738.67 1349.1l-.82 3.94-.37-.07v-4.12z"/><path d="M3800.48 884.07l4.57 14.3-9.27-.06z" stroke="#000" stroke-width="2"/><use xlink:href="#l" transform="matrix(1,0,0,1,3807.401995330911,913.588851327146) translate(0 14.4)"/><use xlink:href="#s" transform="matrix(1,0,0,1,3807.401995330911,913.588851327146) translate(0 36)"/><path d="M3900 1300.56h220V1400h-220z" stroke="#000" stroke-width="2" fill="#fff"/><use xlink:href="#t" transform="matrix(1,0,0,1,3905,1305.5649109792284) translate(48.074999999999996 48.15)"/><path d="M3738.48 1349.9l142.02.34" stroke="#000" stroke-width="2" fill="none"/><path d="M3738.5 1348.9v2h-1.02v-2z"/><path d="M3895.76 1350.27l-14.27 4.6v-9.26z" stroke="#000" stroke-width="2"/><use xlink:href="#l" transform="matrix(1,0,0,1,3833.283539921525,1354.1763962968437) translate(0 14.4)"/><use xlink:href="#m" transform="matrix(1,0,0,1,3833.283539921525,1354.1763962968437) translate(0 36)"/><path d="M4122 1350.26l4.5-.1 5.33-.33 5.14-.54 4.98-.74 4.84-.92 4.7-1.1 4.6-1.3 4.5-1.46 4.42-1.64 4.33-1.82 4.26-2 4.2-2.2 4.15-2.4 4.1-2.6 4.03-2.8 4-3.03 3.96-3.3 3.92-3.52 3.88-3.8 3.83-4.08 3.8-4.4 3.73-4.7 3.68-5.08 3.6-5.43 3.53-5.83 3.43-6.22 3.3-6.65 3.15-7.07 2.97-7.52 2.77-7.94 2.53-8.38 2.25-8.8 1.95-9.15 1.6-9.5 1.24-9.77.55-6.68" stroke="#000" stroke-width="2" fill="none"/><path d="M4122.05 1351.26l-1.05.02v-2l1-.02z"/><path d="M4254.37 1182.23l4.05 14.45-9.26-.38z" stroke="#000" stroke-width="2"/><use xlink:href="#l" transform="matrix(1,0,0,1,4198.445456727598,1215.327841412959) translate(0 14.4)"/><use xlink:href="#m" transform="matrix(1,0,0,1,4198.445456727598,1215.327841412959) translate(0 36)"/><path d="M3940 1500.63h220v179.8h-220z" stroke="#000" stroke-width="2" fill="#fff"/><path d="M3920 1520.6h220v179.83h-220z" stroke="#000" stroke-width="2" fill="#fff"/><path d="M3900 1541.1h220v179.83h-220z" stroke="#000" stroke-width="2" fill="#fff"/><use xlink:href="#h" transform="matrix(1,0,0,1,3905,1546.1105341246293) translate(160 168.632704)"/><path d="M3920 1641.43h80v59.3h-80z" stroke="#000" stroke-width="2" fill="#fff"/><use xlink:href="#h" transform="matrix(1,0,0,1,3925,1646.4254451038576) translate(10 30.025)"/><path d="M4020 1560h80v59.3h-80z" stroke="#000" stroke-width="2" fill="#fff"/><use xlink:href="#k" transform="matrix(1,0,0,1,4025,1565) translate(18.025 30.025)"/><path d="M3668.26 1401.25l.26 12.2.82 13 1.34 12.8 1.86 12.58 2.35 12.34 2.82 12.07 3.3 11.8 3.73 11.5 4.16 11.17 4.57 10.86 4.94 10.5 5.3 10.15 5.66 9.8 5.97 9.4 6.27 9.02 6.55 8.64 6.82 8.24 7.07 7.85 7.3 7.45 7.52 7.06 7.73 6.68 7.9 6.28 8.13 5.9 8.3 5.5 8.47 5.14 8.65 4.75 8.82 4.4 9 4 9.16 3.63 9.35 3.25 9.53 2.88 9.73 2.5 9.92 2.1 10.14 1.72 10.34 1.3 8.48.7" stroke="#000" stroke-width="2" fill="none"/><path d="M3669.26 1401.26l-2 .04-.02-1.05h2z"/><path d="M3915.77 1670.96l-14.43 4.1.34-9.26z" stroke="#000" stroke-width="2"/><use xlink:href="#l" transform="matrix(1,0,0,1,3838.030107981116,1668.4712716634344) translate(0 14.4)"/><use xlink:href="#s" transform="matrix(1,0,0,1,3838.030107981116,1668.4712716634344) translate(0 36)"/><path d="M3960.04 1639.43l.14-3.3.52-4.05.83-3.87 1.13-3.7 1.43-3.56 1.72-3.45 2.05-3.34 2.4-3.23 2.73-3.12 3.12-3 3.52-2.85 3.95-2.67 4.38-2.46 4.82-2.2 5.22-1.85 2.7-.7" stroke="#000" stroke-width="2" fill="none"/><path d="M3961.04 1639.44l-.04 1h-2l.04-1.08z"/><path d="M4015.8 1590.08l-13.55 6.46-1.2-9.2z" stroke="#000" stroke-width="2"/><use xlink:href="#j" transform="matrix(1,0,0,1,3952.5636242198525,1550.3191174276005) translate(0 14.4)"/><use xlink:href="#u" transform="matrix(1,0,0,1,3952.5636242198525,1550.3191174276005) translate(0 36)"/><path d="M4680 1179.83c0 9.93-35.82 17.98-80 17.98s-80-8.04-80-17.97v-143.85c0-9.93 35.82-17.98 80-17.98s80 8.05 80 17.98z" stroke="#000" stroke-width="2" fill="#fff"/><path d="M4680 1035.98c0 9.93-35.82 17.98-80 17.98s-80-8.05-80-17.98" stroke="#000" stroke-width="2" fill="none"/><use xlink:href="#v" transform="matrix(1,0,0,1,4525,1058.9629821958456) translate(55.55 68.8375)"/><path d="M3983 850.15l45.28-1 87.58-5.84 172.27-13.34 42.27-.95 30.36.62 23.9 1.48 19.7 2.06 16.75 2.47 14.54 2.76 12.82 3 11.45 3.2 10.34 3.34 9.4 3.5 8.63 3.62 7.98 3.75 7.4 3.88 6.93 4 6.5 4.12 6.12 4.26 5.8 4.4 5.52 4.56 5.26 4.73 5.02 4.93 4.82 5.13 4.63 5.37 4.46 5.63 4.3 5.9 4.15 6.26 4 6.6 3.87 7.05 3.73 7.52 3.6 8.06 3.43 8.7 3.28 9.4 3.1 10.27 2.88 11.25 1.7 8" stroke="#000" stroke-width="2" fill="none"/><path d="M3983.06 851.15l-1.06.03v-2l1-.03z"/><path d="M4599.43 1013.8l-7.08-13.2 9.12-1.65z" stroke="#000" stroke-width="2"/><path d="M4162 1518.65l27.86-.6 28.5-1.78 27.8-2.92 26.86-3.96 25.66-4.9 24.33-5.7 22.92-6.4 21.45-6.96 20-7.44 18.6-7.8 17.23-8.12 15.96-8.34 14.76-8.52 13.65-8.66 12.62-8.76 11.66-8.86 10.8-8.92 9.98-9 9.23-9.03 8.55-9.1 7.9-9.17 7.33-9.23 6.76-9.3 6.26-9.4 5.75-9.5 5.3-9.64 4.85-9.77 4.42-9.94 4-10.1 3.6-10.34 3.2-10.57 2.78-10.84 2.37-11.14 1.94-11.5 1.5-11.88 1.03-12.33.03-.94" stroke="#000" stroke-width="2" fill="none"/><path d="M4162.05 1519.64l-1.05.03v-2l1-.02z"/><path d="M4599.9 1202.05l4.2 14.4-9.27-.28z" stroke="#000" stroke-width="2"/><path d="M4418 1107.9l82.5-.96" stroke="#000" stroke-width="2" fill="none"/><path d="M4418.04 1108.9H4417v-2h1.02z"/><path d="M4515.76 1106.76l-14.2 4.8-.1-9.27z" stroke="#000" stroke-width="2"/><use xlink:href="#j" transform="matrix(1,0,0,1,4449.172474073417,1060.0403331353905) translate(0 14.4)"/><use xlink:href="#w" transform="matrix(1,0,0,1,4449.172474073417,1060.0403331353905) translate(0 36)"/><path d="M4196 1540h324v179.8h-324z" stroke="#000" stroke-width="2" fill="#fff"/><use xlink:href="#x" transform="matrix(1,0,0,1,4201,1545) translate(193.14999999999998 168.632704)"/><use xlink:href="#y" transform="matrix(1,0,0,1,4201,1545) translate(248.14999999999998 168.632704)"/><use xlink:href="#z" transform="matrix(1,0,0,1,4201,1545) translate(259.09999999999997 168.632704)"/><path d="M4216 1640.3h80v59.33h-80z" stroke="#000" stroke-width="2" fill="#fff"/><use xlink:href="#h" transform="matrix(1,0,0,1,4221,1645.3149109792282) translate(10 30.025)"/><path d="M4316 1558.9h80v59.3h-80z" stroke="#000" stroke-width="2" fill="#fff"/><use xlink:href="#k" transform="matrix(1,0,0,1,4321,1563.8894658753707) translate(18.025 30.025)"/><path d="M4256.04 1638.3l.14-3.28.52-4.06.83-3.86 1.13-3.7 1.43-3.57 1.72-3.45 2.05-3.33 2.4-3.23 2.73-3.12 3.12-3 3.52-2.86 3.95-2.67 4.38-2.46 4.82-2.18 5.22-1.86 2.7-.7" stroke="#000" stroke-width="2" fill="none"/><path d="M4257.04 1638.33l-.04.98h-2l.04-1.05z"/><path d="M4311.8 1588.97l-13.55 6.46-1.2-9.2z" stroke="#000" stroke-width="2"/><use xlink:href="#j" transform="matrix(1,0,0,1,4248.563624219852,1549.2085833029716) translate(0 14.4)"/><use xlink:href="#u" transform="matrix(1,0,0,1,4248.563624219852,1549.2085833029716) translate(0 36)"/><path d="M4416 1558.9h81v59.3h-81z" stroke="#000" stroke-width="2" fill="#fff"/><use xlink:href="#A" transform="matrix(1,0,0,1,4421,1563.8894658753707) translate(10.5 17.525)"/><use xlink:href="#B" transform="matrix(1,0,0,1,4421,1563.8894658753707) translate(4.549999999999997 39.125)"/><path d="M4298 1669.97l58.1-.13 12.2-.76 9.1-.95 7.42-1.08 6.3-1.2 5.5-1.3 4.94-1.37 4.48-1.45 4.1-1.53 3.83-1.6 3.57-1.7 3.38-1.75 3.2-1.85 3.08-1.95 2.94-2.05 2.85-2.16 2.76-2.3 2.7-2.42 2.64-2.58 2.6-2.77 2.3-2.66" stroke="#000" stroke-width="2" fill="none"/><path d="M4298.03 1670.97H4297v-2h1.02z"/><path d="M4454.66 1621.87l-4.3 14.37-7.62-5.27z" stroke="#000" stroke-width="2"/><use xlink:href="#p" transform="matrix(1,0,0,1,4438.518776379205,1638.6800215654957) translate(0 14.4)"/><use xlink:href="#q" transform="matrix(1,0,0,1,4438.518776379205,1638.6800215654957) translate(0 36)"/><path d="M3300 1122c0-2.76 2.24-5 5-5h150c2.76 0 5 2.24 5 5v50c0 2.76-2.24 5-5 5h-150c-2.76 0-5-2.24-5-5z" stroke="#000" stroke-width="2" fill="#c1e4f7"/><use xlink:href="#C" transform="matrix(1,0,0,1,3304.999999980697,1122) translate(21.074999999999996 30.025)"/><use xlink:href="#D" transform="matrix(1,0,0,1,3304.999999980697,1122) translate(60.025 30.025)"/><path d="M3462 1147h118.5" stroke="#000" stroke-width="2" fill="none"/><path d="M3462.02 1148H3461v-2h1.02z"/><path d="M3595.76 1147l-14.26 4.64v-9.28z" stroke="#000" stroke-width="2"/><use xlink:href="#j" transform="matrix(1,0,0,1,3504.9968564903484,1151.0000000000002) translate(0 14.4)"/><use xlink:href="#g" transform="matrix(1,0,0,1,3504.9968564903484,1151.0000000000002) translate(0 36)"/><path d="M3300 1324.9c0-2.75 2.24-5 5-5h150c2.76 0 5 2.25 5 5v50c0 2.77-2.24 5-5 5h-150c-2.76 0-5-2.23-5-5z" stroke="#000" stroke-width="2" fill="#c1e4f7"/><use xlink:href="#E" transform="matrix(1,0,0,1,3305,1324.9074554896142) translate(54.525 30.025)"/><path d="M3462 1349.9h118.5" stroke="#000" stroke-width="2" fill="none"/><path d="M3462.02 1350.9H3461v-2h1.02z"/><path d="M3595.76 1349.9l-14.26 4.64v-9.27z" stroke="#000" stroke-width="2"/><use xlink:href="#l" transform="matrix(1,0,0,1,3509.9968565,1353.9074554896144) translate(0 14.4)"/><use xlink:href="#m" transform="matrix(1,0,0,1,3509.9968565,1353.9074554896144) translate(0 36)"/><path d="M4521.36 1628.97l30.17-78.33 15.52-46.14 9.8-33.78 6.85-28 5.1-25.43 3.92-25.07 3.1-27.1 2.38-33.73 1.64-62.17.12-51.9" stroke="#000" stroke-width="2" fill="none"/><path d="M4522.3 1629.3l-1.3 3.4v-3.9z"/><path d="M4600 1202.05l4.6 14.28-9.28-.02z" stroke="#000" stroke-width="2"/><path d="M4600 1540h220v179.8h-220z" stroke="#000" stroke-width="2" fill="#fff"/><use xlink:href="#F" transform="matrix(1,0,0,1,4605,1545) translate(115.1 168.632704)"/><path d="M4618 1639.5h81v59.3h-81z" stroke="#000" stroke-width="2" fill="#fff"/><use xlink:href="#G" transform="matrix(1,0,0,1,4623.002095683791,1644.5) translate(0.5249999999999986 30.025)"/><path d="M4718 1559.16h81v59.3h-81z" stroke="#000" stroke-width="2" fill="#fff"/><use xlink:href="#o" transform="matrix(1,0,0,1,4723.002095683791,1564.1574554896142) translate(4.549999999999997 30.025)"/><path d="M4658.54 1637.5l.14-3.2.5-4 .83-3.77 1.13-3.62 1.4-3.48 1.72-3.37 2.03-3.26 2.36-3.18 2.72-3.06 3.12-2.95 3.53-2.8 3.98-2.65 4.43-2.43 4.9-2.16 5.32-1.83 2.1-.53" stroke="#000" stroke-width="2" fill="none"/><path d="M4659.54 1637.52l-.04.98h-2l.05-1.07z"/><path d="M4713.8 1589.23l-13.55 6.45-1.2-9.2z" stroke="#000" stroke-width="2"/><use xlink:href="#p" transform="matrix(1,0,0,1,4617.138428989268,1587.0502189256185) translate(0 14.4)"/><use xlink:href="#q" transform="matrix(1,0,0,1,4617.138428989268,1587.0502189256185) translate(0 36)"/><path d="M4709.98 1538l-.3-14.54-.87-13.86-1.3-12.54-1.7-11.5-2.03-10.7-2.37-10.1-2.7-9.63-3.03-9.37-3.45-9.27-3.96-9.43-4.66-9.88-5.75-11-8.07-13.94-37.63-60.65-5.76-10.98-4.66-9.88-3.96-9.4-3.45-9.3-3.04-9.36-2.7-9.64-2.37-10.08-2.04-10.7-1.7-11.5-1.32-12.54-.68-10.9" stroke="#000" stroke-width="2" fill="none"/><path d="M4711 1539h-2l-.02-1 2-.05z"/><path d="M4600.1 1202.05l5 14.13-9.26.26z" stroke="#000" stroke-width="2"/><path d="M3659.5 820.52h81v59.3h-81z" stroke="#000" stroke-width="2" fill="#fff"/><use xlink:href="#H" transform="matrix(1,0,0,1,3664.4989521581047,825.5179896142433) translate(16.5 30.025)"/><path d="M3700 818.52v-29.1" stroke="#000" stroke-width="2" fill="none"/><path d="M3701 819.52h-2v-1.03h2z"/><path d="M3700 774.15l4.63 14.27h-9.27z" stroke="#000" stroke-width="2"/><path d="M3799.6 819.1l-2.65-1.2-4.07-1.6-4.78-1.6-5.9-1.67-7.86-1.8-15.22-2.64-23.74-3.88-6.03-1.38-4.2-1.2-3.23-1.08-2.6-1.03-2.2-1-1.87-.95-1.64-.94-1.43-.94-1.28-.92-1.17-.93-1.06-.93-.96-.94-.87-.96-.82-.97-.75-1-.66-.98M3799.56 819.1l.94.42" stroke="#000" stroke-width="2" fill="none"/><path d="M3700.8 774.05l8.1 12.64-9 2.32z" stroke="#000" stroke-width="2"/><path d="M3900 1097.66h220v98.68h-220z" stroke="#000" stroke-width="2" fill="#fff"/><use xlink:href="#I" transform="matrix(1,0,0,1,3905,1102.6574554896142) translate(51.074999999999996 47.775)"/><path d="M3060 1327.23c0-3.32 2.68-6 6-6h148c3.3 0 6 2.68 6 6v48c0 3.3-2.7 6-6 6h-148c-3.32 0-6-2.7-6-6z" stroke="#000" stroke-opacity="0" stroke-width="3" fill="#fff" fill-opacity="0"/><use xlink:href="#J" transform="matrix(1,0,0,1,3064.9937129100217,1326.2282540652568) translate(5.370370370370381 30.27777777777778)"/><use xlink:href="#K" transform="matrix(1,0,0,1,3064.9937129100217,1326.2282540652568) translate(64.56790123456791 30.27777777777778)"/><use xlink:href="#L" transform="matrix(1,0,0,1,3064.9937129100217,1326.2282540652568) translate(106.54320987654322 30.27777777777778)"/><path d="M3221 1351.23h59.5" stroke="#5e5e5e" stroke-width="2" fill="none"/><path d="M3221.02 1352.23H3220v-2h1.02z" fill="#5e5e5e"/><path d="M3295.76 1351.23l-14.26 4.63v-9.27z" stroke="#5e5e5e" stroke-width="2" fill="#5e5e5e"/><path d="M2940 1109.7c0-3.33 2.68-6 6-6h268c3.3 0 6 2.67 6 6v78c0 3.3-2.7 6-6 6h-268c-3.32 0-6-2.7-6-6z" stroke="#000" stroke-opacity="0" stroke-width="3" fill="#fff" fill-opacity="0"/><g><use xlink:href="#M" transform="matrix(1,0,0,1,2944.9937129100217,1108.6850890207716) translate(7.2222222222222 45.27777777777778)"/><use xlink:href="#N" transform="matrix(1,0,0,1,2944.9937129100217,1108.6850890207716) translate(95.12345679012343 45.27777777777778)"/><use xlink:href="#O" transform="matrix(1,0,0,1,2944.9937129100217,1108.6850890207716) translate(180.2469135802469 45.27777777777778)"/></g><path d="M3221 1147h59.5" stroke="#5e5e5e" stroke-width="2" fill="none"/><path d="M3221.02 1148H3220v-2h1.02z" fill="#5e5e5e"/><path d="M3295.76 1147l-14.26 4.64v-9.28z" stroke="#5e5e5e" stroke-width="2" fill="#5e5e5e"/><path d="M3040 982.14c0-3.3 2.7-6 6-6h168c3.3 0 6 2.7 6 6v78c0 3.32-2.7 6-6 6h-168c-3.3 0-6-2.68-6-6z" stroke="#000" stroke-opacity="0" stroke-width="3" fill="#fff" fill-opacity="0"/><g><use xlink:href="#P" transform="matrix(1,0,0,1,3045,981.1419239762863) translate(17.623456790123456 45.27777777777778)"/><use xlink:href="#Q" transform="matrix(1,0,0,1,3045,981.1419239762863) translate(70.64814814814815 45.27777777777778)"/></g><path d="M3221 1021.14h33c3.3 0 6-2.68 6-6V565c0-3.3 2.7-6 6-6h428c3.3 0 6 2.7 6 6v15.5" stroke="#5e5e5e" stroke-width="2" fill="none"/><path d="M3221.03 1022.14H3220v-2h1.03z" fill="#5e5e5e"/><path d="M3700 595.76l-4.64-14.26h9.27z" stroke="#5e5e5e" stroke-width="2" fill="#5e5e5e"/><path d="M4660 812.18c0 9.94-35.82 18-80 18s-80-8.06-80-18V668.33c0-9.93 35.82-17.98 80-17.98s80 8.05 80 17.98z" stroke="#000" stroke-width="2" fill="#fff"/><path d="M4660 668.33c0 9.93-35.82 17.98-80 17.98s-80-8.04-80-17.97" stroke="#000" stroke-width="2" fill="none"/><g><use xlink:href="#R" transform="matrix(1,0,0,1,4505,691.3145215133532) translate(18.075000000000003 60.4625)"/><use xlink:href="#S" transform="matrix(1,0,0,1,4505,691.3145215133532) translate(91.025 60.4625)"/><use xlink:href="#T" transform="matrix(1,0,0,1,4505,691.3145215133532) translate(13.074999999999996 82.0625)"/><use xlink:href="#U" transform="matrix(1,0,0,1,4505,691.3145215133532) translate(68.025 82.0625)"/><use xlink:href="#V" transform="matrix(1,0,0,1,4505,691.3145215133532) translate(88.975 82.0625)"/></g><path d="M3843 850.18h37.5" stroke="#5e5e5e" stroke-width="2" fill="none"/><path d="M3843.02 851.18H3842v-2h1.02z" fill="#5e5e5e"/><path d="M3895.76 850.18l-14.26 4.63v-9.26z" stroke="#5e5e5e" stroke-width="2" fill="#5e5e5e"/><defs><path d="M117-194c89-4 53 116 60 194h-32v-121c0-31-8-49-39-48C34-167 62-67 57 0H25l-1-190h30c1 10-1 24 2 32 11-22 29-35 61-36" id="W"/><path d="M100-194c62-1 85 37 85 99 1 63-27 99-86 99S16-35 15-95c0-66 28-99 85-99zM99-20c44 1 53-31 53-75 0-43-8-75-51-75s-53 32-53 75 10 74 51 75" id="X"/><path d="M85-194c31 0 48 13 60 33l-1-100h32l1 261h-30c-2-10 0-23-3-31C134-8 116 4 85 4 32 4 16-35 15-94c0-66 23-100 70-100zm9 24c-40 0-46 34-46 75 0 40 6 74 45 74 42 0 51-32 51-76 0-42-9-74-50-73" id="Y"/><path d="M100-194c63 0 86 42 84 106H49c0 40 14 67 53 68 26 1 43-12 49-29l28 8c-11 28-37 45-77 45C44 4 14-33 15-96c1-61 26-98 85-98zm52 81c6-60-76-77-97-28-3 7-6 17-6 28h103" id="Z"/><g id="a"><use transform="matrix(0.05,0,0,0.05,0,0)" xlink:href="#W"/><use transform="matrix(0.05,0,0,0.05,10,0)" xlink:href="#X"/><use transform="matrix(0.05,0,0,0.05,20,0)" xlink:href="#Y"/><use transform="matrix(0.05,0,0,0.05,30,0)" xlink:href="#Z"/></g><path d="M143 0L79-87 56-68V0H24v-261h32v163l83-92h37l-77 82L181 0h-38" id="aa"/><path d="M134-131c28 9 52 24 51 62-1 50-34 73-85 73S17-19 16-69c0-36 21-54 49-61-75-25-45-126 34-121 46 3 78 18 79 63 0 33-17 51-44 57zm-34-11c31 1 46-15 46-44 0-28-17-43-47-42-29 0-46 13-45 42 1 28 16 44 46 44zm1 122c35 0 51-18 51-52 0-30-18-46-53-46-33 0-51 17-51 47 0 34 19 51 53 51" id="ab"/><path d="M135-143c-3-34-86-38-87 0 15 53 115 12 119 90S17 21 10-45l28-5c4 36 97 45 98 0-10-56-113-15-118-90-4-57 82-63 122-42 12 7 21 19 24 35" id="ac"/><g id="b"><use transform="matrix(0.05,0,0,0.05,0,0)" xlink:href="#aa"/><use transform="matrix(0.05,0,0,0.05,9,0)" xlink:href="#ab"/><use transform="matrix(0.05,0,0,0.05,19,0)" xlink:href="#ac"/></g><path d="M106-169C34-169 62-67 57 0H25v-261h32l-1 103c12-21 28-36 61-36 89 0 53 116 60 194h-32v-121c2-32-8-49-39-48" id="ad"/><path d="M59-47c-2 24 18 29 38 22v24C64 9 27 4 27-40v-127H5v-23h24l9-43h21v43h35v23H59v120" id="ae"/><g id="c"><use transform="matrix(0.05,0,0,0.05,0,0)" xlink:href="#ad"/><use transform="matrix(0.05,0,0,0.05,10,0)" xlink:href="#X"/><use transform="matrix(0.05,0,0,0.05,20,0)" xlink:href="#ac"/><use transform="matrix(0.05,0,0,0.05,29,0)" xlink:href="#ae"/></g><path d="M115-194c55 1 70 41 70 98S169 2 115 4C84 4 66-9 55-30l1 105H24l-1-265h31l2 30c10-21 28-34 59-34zm-8 174c40 0 45-34 45-75s-6-73-45-74c-42 0-51 32-51 76 0 43 10 73 51 73" id="af"/><path d="M114-163C36-179 61-72 57 0H25l-1-190h30c1 12-1 29 2 39 6-27 23-49 58-41v29" id="ag"/><g id="d"><use transform="matrix(0.05,0,0,0.05,0,0)" xlink:href="#af"/><use transform="matrix(0.05,0,0,0.05,10,0)" xlink:href="#X"/><use transform="matrix(0.05,0,0,0.05,20,0)" xlink:href="#ag"/><use transform="matrix(0.05,0,0,0.05,25.950000000000003,0)" xlink:href="#ae"/></g><path d="M141-36C126-15 110 5 73 4 37 3 15-17 15-53c-1-64 63-63 125-63 3-35-9-54-41-54-24 1-41 7-42 31l-33-3c5-37 33-52 76-52 45 0 72 20 72 64v82c-1 20 7 32 28 27v20c-31 9-61-2-59-35zM48-53c0 20 12 33 32 33 41-3 63-29 60-74-43 2-92-5-92 41" id="ah"/><path d="M96-169c-40 0-48 33-48 73s9 75 48 75c24 0 41-14 43-38l32 2c-6 37-31 61-74 61-59 0-76-41-82-99-10-93 101-131 147-64 4 7 5 14 7 22l-32 3c-4-21-16-35-41-35" id="ai"/><g id="e"><use transform="matrix(0.05,0,0,0.05,0,0)" xlink:href="#ah"/><use transform="matrix(0.05,0,0,0.05,10,0)" xlink:href="#ac"/><use transform="matrix(0.05,0,0,0.05,19,0)" xlink:href="#ai"/><use transform="matrix(0.05,0,0,0.05,28,0)" xlink:href="#af"/></g><path d="M84 4C-5 8 30-112 23-190h32v120c0 31 7 50 39 49 72-2 45-101 50-169h31l1 190h-30c-1-10 1-25-2-33-11 22-28 36-60 37" id="aj"/><g id="f"><use transform="matrix(0.05,0,0,0.05,0,0)" xlink:href="#aj"/><use transform="matrix(0.05,0,0,0.05,10,0)" xlink:href="#Y"/><use transform="matrix(0.05,0,0,0.05,20,0)" xlink:href="#af"/></g><path d="M126-127c33 6 58 20 58 59 0 88-139 92-164 29-3-8-5-16-6-25l32-3c6 27 21 44 54 44 32 0 52-15 52-46 0-38-36-46-79-43v-28c39 1 72-4 72-42 0-27-17-43-46-43-28 0-47 15-49 41l-32-3c6-42 35-63 81-64 48-1 79 21 79 65 0 36-21 52-52 59" id="ak"/><path d="M101-251c68 0 85 55 85 127S166 4 100 4C33 4 14-52 14-124c0-73 17-127 87-127zm-1 229c47 0 54-49 54-102s-4-102-53-102c-51 0-55 48-55 102 0 53 5 102 54 102" id="al"/><path d="M27 0v-27h64v-190l-56 39v-29l58-41h29v221h61V0H27" id="am"/><g id="g"><use transform="matrix(0.05,0,0,0.05,0,0)" xlink:href="#ak"/><use transform="matrix(0.05,0,0,0.05,10,0)" xlink:href="#ak"/><use transform="matrix(0.05,0,0,0.05,20,0)" xlink:href="#al"/><use transform="matrix(0.05,0,0,0.05,30,0)" xlink:href="#al"/><use transform="matrix(0.05,0,0,0.05,40,0)" xlink:href="#am"/></g><g id="h"><use transform="matrix(0.05,0,0,0.05,0,0)" xlink:href="#W"/><use transform="matrix(0.05,0,0,0.05,10,0)" xlink:href="#X"/><use transform="matrix(0.05,0,0,0.05,20,0)" xlink:href="#Y"/><use transform="matrix(0.05,0,0,0.05,30,0)" xlink:href="#Z"/><use transform="matrix(0.05,0,0,0.05,40,0)" xlink:href="#Y"/></g><path d="M16-82v-28h88v28H16" id="an"/><path d="M141 0L90-78 38 0H4l68-98-65-92h35l48 74 47-74h35l-64 92 68 98h-35" id="ao"/><path d="M179-190L93 31C79 59 56 82 12 73V49c39 6 53-20 64-50L1-190h34L92-34l54-156h33" id="ap"/><g id="i"><use transform="matrix(0.05,0,0,0.05,0,0)" xlink:href="#ae"/><use transform="matrix(0.05,0,0,0.05,5,0)" xlink:href="#ai"/><use transform="matrix(0.05,0,0,0.05,14,0)" xlink:href="#af"/><use transform="matrix(0.05,0,0,0.05,24,0)" xlink:href="#an"/><use transform="matrix(0.05,0,0,0.05,29.950000000000003,0)" xlink:href="#af"/><use transform="matrix(0.05,0,0,0.05,39.95,0)" xlink:href="#ag"/><use transform="matrix(0.05,0,0,0.05,45.900000000000006,0)" xlink:href="#X"/><use transform="matrix(0.05,0,0,0.05,55.900000000000006,0)" xlink:href="#ao"/><use transform="matrix(0.05,0,0,0.05,64.9,0)" xlink:href="#ap"/></g><g id="j"><use transform="matrix(0.05,0,0,0.05,0,0)" xlink:href="#ae"/><use transform="matrix(0.05,0,0,0.05,5,0)" xlink:href="#ai"/><use transform="matrix(0.05,0,0,0.05,14,0)" xlink:href="#af"/></g><path d="M24-231v-30h32v30H24zM-9 49c24 4 33-6 33-30v-209h32V24c2 40-23 58-65 49V49" id="aq"/><g id="k"><use transform="matrix(0.05,0,0,0.05,0,0)" xlink:href="#ah"/><use transform="matrix(0.05,0,0,0.05,10,0)" xlink:href="#Z"/><use transform="matrix(0.05,0,0,0.05,20,0)" xlink:href="#aq"/><use transform="matrix(0.05,0,0,0.05,23.95,0)" xlink:href="#Y"/></g><g id="l"><use transform="matrix(0.05,0,0,0.05,0,0)" xlink:href="#ad"/><use transform="matrix(0.05,0,0,0.05,10,0)" xlink:href="#ae"/><use transform="matrix(0.05,0,0,0.05,15,0)" xlink:href="#ae"/><use transform="matrix(0.05,0,0,0.05,20,0)" xlink:href="#af"/><use transform="matrix(0.05,0,0,0.05,30,0)" xlink:href="#ac"/></g><g id="m"><use transform="matrix(0.05,0,0,0.05,0,0)" xlink:href="#ab"/><use transform="matrix(0.05,0,0,0.05,10,0)" xlink:href="#al"/><use transform="matrix(0.05,0,0,0.05,20,0)" xlink:href="#al"/><use transform="matrix(0.05,0,0,0.05,30,0)" xlink:href="#al"/></g><path d="M177-190C167-65 218 103 67 71c-23-6-38-20-44-43l32-5c15 47 100 32 89-28v-30C133-14 115 1 83 1 29 1 15-40 15-95c0-56 16-97 71-98 29-1 48 16 59 35 1-10 0-23 2-32h30zM94-22c36 0 50-32 50-73 0-42-14-75-50-75-39 0-46 34-46 75s6 73 46 73" id="ar"/><path d="M24-231v-30h32v30H24zM24 0v-190h32V0H24" id="as"/><g id="n"><use transform="matrix(0.05,0,0,0.05,0,0)" xlink:href="#Z"/><use transform="matrix(0.05,0,0,0.05,10,0)" xlink:href="#W"/><use transform="matrix(0.05,0,0,0.05,20,0)" xlink:href="#ar"/><use transform="matrix(0.05,0,0,0.05,30,0)" xlink:href="#as"/><use transform="matrix(0.05,0,0,0.05,33.95,0)" xlink:href="#W"/><use transform="matrix(0.05,0,0,0.05,43.95,0)" xlink:href="#Z"/></g><path d="M24 0v-261h32V0H24" id="at"/><g id="o"><use transform="matrix(0.05,0,0,0.05,0,0)" xlink:href="#Z"/><use transform="matrix(0.05,0,0,0.05,10,0)" xlink:href="#at"/><use transform="matrix(0.05,0,0,0.05,13.949999999999998,0)" xlink:href="#Z"/><use transform="matrix(0.05,0,0,0.05,23.95,0)" xlink:href="#ai"/><use transform="matrix(0.05,0,0,0.05,32.95,0)" xlink:href="#ae"/><use transform="matrix(0.05,0,0,0.05,37.95,0)" xlink:href="#as"/><use transform="matrix(0.05,0,0,0.05,41.900000000000006,0)" xlink:href="#X"/><use transform="matrix(0.05,0,0,0.05,51.900000000000006,0)" xlink:href="#W"/></g><g id="p"><use transform="matrix(0.05,0,0,0.05,0,0)" xlink:href="#ad"/><use transform="matrix(0.05,0,0,0.05,10,0)" xlink:href="#ae"/><use transform="matrix(0.05,0,0,0.05,15,0)" xlink:href="#ae"/><use transform="matrix(0.05,0,0,0.05,20,0)" xlink:href="#af"/></g><path d="M99-251c64 0 84 50 84 122C183-37 130 33 47-8c-14-7-20-23-25-40l30-5c6 39 69 39 84 7 9-19 16-44 16-74-10 22-31 35-62 35-49 0-73-33-73-83 0-54 28-83 82-83zm-1 141c31-1 51-18 51-49 0-36-14-67-51-67-34 0-49 23-49 58 0 34 15 58 49 58" id="au"/><g id="q"><use transform="matrix(0.05,0,0,0.05,0,0)" xlink:href="#au"/><use transform="matrix(0.05,0,0,0.05,10,0)" xlink:href="#al"/><use transform="matrix(0.05,0,0,0.05,20,0)" xlink:href="#al"/><use transform="matrix(0.05,0,0,0.05,30,0)" xlink:href="#al"/></g><g id="r"><use transform="matrix(0.05,0,0,0.05,0,0)" xlink:href="#ad"/><use transform="matrix(0.05,0,0,0.05,10,0)" xlink:href="#ae"/><use transform="matrix(0.05,0,0,0.05,15,0)" xlink:href="#ae"/><use transform="matrix(0.05,0,0,0.05,20,0)" xlink:href="#af"/><use transform="matrix(0.05,0,0,0.05,30,0)" xlink:href="#an"/><use transform="matrix(0.05,0,0,0.05,35.95,0)" xlink:href="#af"/><use transform="matrix(0.05,0,0,0.05,45.95,0)" xlink:href="#ag"/><use transform="matrix(0.05,0,0,0.05,51.900000000000006,0)" xlink:href="#X"/><use transform="matrix(0.05,0,0,0.05,61.900000000000006,0)" xlink:href="#ao"/><use transform="matrix(0.05,0,0,0.05,70.9,0)" xlink:href="#ap"/></g><path d="M101-251c82-7 93 87 43 132L82-64C71-53 59-42 53-27h129V0H18c2-99 128-94 128-182 0-28-16-43-45-43s-46 15-49 41l-32-3c6-41 34-60 81-64" id="av"/><g id="s"><use transform="matrix(0.05,0,0,0.05,0,0)" xlink:href="#au"/><use transform="matrix(0.05,0,0,0.05,10,0)" xlink:href="#al"/><use transform="matrix(0.05,0,0,0.05,20,0)" xlink:href="#au"/><use transform="matrix(0.05,0,0,0.05,30,0)" xlink:href="#av"/></g><g id="t"><use transform="matrix(0.05,0,0,0.05,0,0)" xlink:href="#ad"/><use transform="matrix(0.05,0,0,0.05,10,0)" xlink:href="#ae"/><use transform="matrix(0.05,0,0,0.05,15,0)" xlink:href="#ae"/><use transform="matrix(0.05,0,0,0.05,20,0)" xlink:href="#af"/><use transform="matrix(0.05,0,0,0.05,30,0)" xlink:href="#an"/><use transform="matrix(0.05,0,0,0.05,35.95,0)" xlink:href="#ac"/><use transform="matrix(0.05,0,0,0.05,44.95,0)" xlink:href="#ai"/><use transform="matrix(0.05,0,0,0.05,53.95,0)" xlink:href="#ad"/><use transform="matrix(0.05,0,0,0.05,63.95,0)" xlink:href="#Z"/><use transform="matrix(0.05,0,0,0.05,73.95,0)" xlink:href="#Y"/><use transform="matrix(0.05,0,0,0.05,83.95,0)" xlink:href="#aj"/><use transform="matrix(0.05,0,0,0.05,93.95,0)" xlink:href="#at"/><use transform="matrix(0.05,0,0,0.05,97.9,0)" xlink:href="#Z"/><use transform="matrix(0.05,0,0,0.05,107.9,0)" xlink:href="#ag"/></g><g id="u"><use transform="matrix(0.05,0,0,0.05,0,0)" xlink:href="#av"/><use transform="matrix(0.05,0,0,0.05,10,0)" xlink:href="#ab"/><use transform="matrix(0.05,0,0,0.05,20,0)" xlink:href="#al"/><use transform="matrix(0.05,0,0,0.05,30,0)" xlink:href="#al"/><use transform="matrix(0.05,0,0,0.05,40,0)" xlink:href="#al"/></g><g id="v"><use transform="matrix(0.05,0,0,0.05,0,0)" xlink:href="#ag"/><use transform="matrix(0.05,0,0,0.05,5.95,0)" xlink:href="#Z"/><use transform="matrix(0.05,0,0,0.05,15.949999999999998,0)" xlink:href="#Y"/><use transform="matrix(0.05,0,0,0.05,25.950000000000003,0)" xlink:href="#as"/><use transform="matrix(0.05,0,0,0.05,29.899999999999995,0)" xlink:href="#ac"/></g><path d="M110-160c48 1 74 30 74 79 0 53-28 85-80 85-65 0-83-55-86-122-5-90 50-162 133-122 14 7 22 21 27 39l-31 6c-5-40-67-38-82-6-9 19-15 44-15 74 11-20 30-34 60-33zm-7 138c34 0 49-23 49-58s-16-56-50-56c-29 0-50 16-49 49 1 36 15 65 50 65" id="aw"/><g id="w"><use transform="matrix(0.05,0,0,0.05,0,0)" xlink:href="#am"/><use transform="matrix(0.05,0,0,0.05,10,0)" xlink:href="#aw"/><use transform="matrix(0.05,0,0,0.05,20,0)" xlink:href="#al"/><use transform="matrix(0.05,0,0,0.05,30,0)" xlink:href="#al"/><use transform="matrix(0.05,0,0,0.05,40,0)" xlink:href="#al"/></g><g id="x"><use transform="matrix(0.05,0,0,0.05,0,0)" xlink:href="#W"/><use transform="matrix(0.05,0,0,0.05,10,0)" xlink:href="#X"/><use transform="matrix(0.05,0,0,0.05,20,0)" xlink:href="#Y"/><use transform="matrix(0.05,0,0,0.05,30,0)" xlink:href="#Z"/><use transform="matrix(0.05,0,0,0.05,40,0)" xlink:href="#Y"/></g><use transform="matrix(0.05,0,0,0.05,0,0)" xlink:href="#an" id="y"/><path d="M210-169c-67 3-38 105-44 169h-31v-121c0-29-5-50-35-48C34-165 62-65 56 0H25l-1-190h30c1 10-1 24 2 32 10-44 99-50 107 0 11-21 27-35 58-36 85-2 47 119 55 194h-31v-121c0-29-5-49-35-48" id="ax"/><g id="z"><use transform="matrix(0.05,0,0,0.05,0,0)" xlink:href="#ax"/><use transform="matrix(0.05,0,0,0.05,14.950000000000001,0)" xlink:href="#ah"/><use transform="matrix(0.05,0,0,0.05,24.950000000000003,0)" xlink:href="#ac"/><use transform="matrix(0.05,0,0,0.05,33.95,0)" xlink:href="#ae"/><use transform="matrix(0.05,0,0,0.05,38.95,0)" xlink:href="#Z"/><use transform="matrix(0.05,0,0,0.05,48.95,0)" xlink:href="#ag"/></g><g id="A"><use transform="matrix(0.05,0,0,0.05,0,0)" xlink:href="#W"/><use transform="matrix(0.05,0,0,0.05,10,0)" xlink:href="#X"/><use transform="matrix(0.05,0,0,0.05,20,0)" xlink:href="#Y"/><use transform="matrix(0.05,0,0,0.05,30,0)" xlink:href="#Z"/><use transform="matrix(0.05,0,0,0.05,40,0)" xlink:href="#Y"/></g><g id="B"><use transform="matrix(0.05,0,0,0.05,0,0)" xlink:href="#Z"/><use transform="matrix(0.05,0,0,0.05,10,0)" xlink:href="#at"/><use transform="matrix(0.05,0,0,0.05,13.949999999999998,0)" xlink:href="#Z"/><use transform="matrix(0.05,0,0,0.05,23.95,0)" xlink:href="#ai"/><use transform="matrix(0.05,0,0,0.05,32.95,0)" xlink:href="#ae"/><use transform="matrix(0.05,0,0,0.05,37.95,0)" xlink:href="#as"/><use transform="matrix(0.05,0,0,0.05,41.900000000000006,0)" xlink:href="#X"/><use transform="matrix(0.05,0,0,0.05,51.900000000000006,0)" xlink:href="#W"/></g><g id="C"><use transform="matrix(0.05,0,0,0.05,0,0)" xlink:href="#at"/><use transform="matrix(0.05,0,0,0.05,3.95,0)" xlink:href="#X"/><use transform="matrix(0.05,0,0,0.05,13.949999999999998,0)" xlink:href="#ah"/><use transform="matrix(0.05,0,0,0.05,23.95,0)" xlink:href="#Y"/></g><path d="M115-194c53 0 69 39 70 98 0 66-23 100-70 100C84 3 66-7 56-30L54 0H23l1-261h32v101c10-23 28-34 59-34zm-8 174c40 0 45-34 45-75 0-40-5-75-45-74-42 0-51 32-51 76 0 43 10 73 51 73" id="ay"/><g id="D"><use transform="matrix(0.05,0,0,0.05,0,0)" xlink:href="#ay"/><use transform="matrix(0.05,0,0,0.05,10,0)" xlink:href="#ah"/><use transform="matrix(0.05,0,0,0.05,20,0)" xlink:href="#at"/><use transform="matrix(0.05,0,0,0.05,23.95,0)" xlink:href="#ah"/><use transform="matrix(0.05,0,0,0.05,33.95,0)" xlink:href="#W"/><use transform="matrix(0.05,0,0,0.05,43.95,0)" xlink:href="#ai"/><use transform="matrix(0.05,0,0,0.05,52.95,0)" xlink:href="#Z"/><use transform="matrix(0.05,0,0,0.05,62.95,0)" xlink:href="#ag"/></g><g id="E"><use transform="matrix(0.05,0,0,0.05,0,0)" xlink:href="#ag"/><use transform="matrix(0.05,0,0,0.05,5.95,0)" xlink:href="#X"/><use transform="matrix(0.05,0,0,0.05,15.949999999999998,0)" xlink:href="#aj"/><use transform="matrix(0.05,0,0,0.05,25.950000000000003,0)" xlink:href="#ae"/><use transform="matrix(0.05,0,0,0.05,30.950000000000003,0)" xlink:href="#Z"/></g><g id="F"><use transform="matrix(0.05,0,0,0.05,0,0)" xlink:href="#af"/><use transform="matrix(0.05,0,0,0.05,10,0)" xlink:href="#ag"/><use transform="matrix(0.05,0,0,0.05,15.949999999999998,0)" xlink:href="#X"/><use transform="matrix(0.05,0,0,0.05,25.950000000000003,0)" xlink:href="#ax"/><use transform="matrix(0.05,0,0,0.05,40.9,0)" xlink:href="#Z"/><use transform="matrix(0.05,0,0,0.05,50.9,0)" xlink:href="#ae"/><use transform="matrix(0.05,0,0,0.05,55.900000000000006,0)" xlink:href="#ad"/><use transform="matrix(0.05,0,0,0.05,65.9,0)" xlink:href="#Z"/><use transform="matrix(0.05,0,0,0.05,75.9,0)" xlink:href="#aj"/><use transform="matrix(0.05,0,0,0.05,85.9,0)" xlink:href="#ac"/></g><path d="M33 0v-38h34V0H33" id="az"/><g id="G"><use transform="matrix(0.05,0,0,0.05,0,0)" xlink:href="#af"/><use transform="matrix(0.05,0,0,0.05,10,0)" xlink:href="#ag"/><use transform="matrix(0.05,0,0,0.05,15.949999999999998,0)" xlink:href="#X"/><use transform="matrix(0.05,0,0,0.05,25.950000000000003,0)" xlink:href="#az"/><use transform="matrix(0.05,0,0,0.05,30.950000000000003,0)" xlink:href="#az"/><use transform="matrix(0.05,0,0,0.05,35.95,0)" xlink:href="#az"/><use transform="matrix(0.05,0,0,0.05,40.95,0)" xlink:href="#Z"/><use transform="matrix(0.05,0,0,0.05,50.95,0)" xlink:href="#aj"/><use transform="matrix(0.05,0,0,0.05,60.95,0)" xlink:href="#ac"/></g><g id="H"><use transform="matrix(0.05,0,0,0.05,0,0)" xlink:href="#ac"/><use transform="matrix(0.05,0,0,0.05,9,0)" xlink:href="#ac"/><use transform="matrix(0.05,0,0,0.05,18,0)" xlink:href="#ad"/><use transform="matrix(0.05,0,0,0.05,28,0)" xlink:href="#Y"/></g><g id="I"><use transform="matrix(0.05,0,0,0.05,0,0)" xlink:href="#ae"/><use transform="matrix(0.05,0,0,0.05,5,0)" xlink:href="#ai"/><use transform="matrix(0.05,0,0,0.05,14,0)" xlink:href="#af"/><use transform="matrix(0.05,0,0,0.05,24,0)" xlink:href="#an"/><use transform="matrix(0.05,0,0,0.05,29.950000000000003,0)" xlink:href="#ac"/><use transform="matrix(0.05,0,0,0.05,38.95,0)" xlink:href="#ai"/><use transform="matrix(0.05,0,0,0.05,47.95,0)" xlink:href="#ad"/><use transform="matrix(0.05,0,0,0.05,57.95,0)" xlink:href="#Z"/><use transform="matrix(0.05,0,0,0.05,67.95,0)" xlink:href="#Y"/><use transform="matrix(0.05,0,0,0.05,77.95,0)" xlink:href="#aj"/><use transform="matrix(0.05,0,0,0.05,87.95,0)" xlink:href="#at"/><use transform="matrix(0.05,0,0,0.05,91.9,0)" xlink:href="#Z"/><use transform="matrix(0.05,0,0,0.05,101.9,0)" xlink:href="#ag"/></g><path fill="#333" d="M190 0L58-211 59 0H30v-248h39L202-35l-2-213h31V0h-41" id="aA"/><path fill="#333" d="M100-194c62-1 85 37 85 99 1 63-27 99-86 99S16-35 15-95c0-66 28-99 85-99zM99-20c44 1 53-31 53-75 0-43-8-75-51-75s-53 32-53 75 10 74 51 75" id="aB"/><path fill="#333" d="M85-194c31 0 48 13 60 33l-1-100h32l1 261h-30c-2-10 0-23-3-31C134-8 116 4 85 4 32 4 16-35 15-94c0-66 23-100 70-100zm9 24c-40 0-46 34-46 75 0 40 6 74 45 74 42 0 51-32 51-76 0-42-9-74-50-73" id="aC"/><path fill="#333" d="M100-194c63 0 86 42 84 106H49c0 40 14 67 53 68 26 1 43-12 49-29l28 8c-11 28-37 45-77 45C44 4 14-33 15-96c1-61 26-98 85-98zm52 81c6-60-76-77-97-28-3 7-6 17-6 28h103" id="aD"/><g id="J"><use transform="matrix(0.06172839506172839,0,0,0.06172839506172839,0,0)" xlink:href="#aA"/><use transform="matrix(0.06172839506172839,0,0,0.06172839506172839,15.987654320987653,0)" xlink:href="#aB"/><use transform="matrix(0.06172839506172839,0,0,0.06172839506172839,28.333333333333332,0)" xlink:href="#aC"/><use transform="matrix(0.06172839506172839,0,0,0.06172839506172839,40.67901234567901,0)" xlink:href="#aD"/></g><path fill="#333" d="M205 0l-28-72H64L36 0H1l101-248h38L239 0h-34zm-38-99l-47-123c-12 45-31 82-46 123h93" id="aE"/><path fill="#333" d="M30-248c87 1 191-15 191 75 0 78-77 80-158 76V0H30v-248zm33 125c57 0 124 11 124-50 0-59-68-47-124-48v98" id="aF"/><path fill="#333" d="M33 0v-248h34V0H33" id="aG"/><g id="K"><use transform="matrix(0.06172839506172839,0,0,0.06172839506172839,0,0)" xlink:href="#aE"/><use transform="matrix(0.06172839506172839,0,0,0.06172839506172839,14.814814814814813,0)" xlink:href="#aF"/><use transform="matrix(0.06172839506172839,0,0,0.06172839506172839,29.629629629629626,0)" xlink:href="#aG"/></g><path fill="#333" d="M212-179c-10-28-35-45-73-45-59 0-87 40-87 99 0 60 29 101 89 101 43 0 62-24 78-52l27 14C228-24 195 4 139 4 59 4 22-46 18-125c-6-104 99-153 187-111 19 9 31 26 39 46" id="aH"/><path fill="#333" d="M141-36C126-15 110 5 73 4 37 3 15-17 15-53c-1-64 63-63 125-63 3-35-9-54-41-54-24 1-41 7-42 31l-33-3c5-37 33-52 76-52 45 0 72 20 72 64v82c-1 20 7 32 28 27v20c-31 9-61-2-59-35zM48-53c0 20 12 33 32 33 41-3 63-29 60-74-43 2-92-5-92 41" id="aI"/><path fill="#333" d="M24 0v-261h32V0H24" id="aJ"/><g id="L"><use transform="matrix(0.06172839506172839,0,0,0.06172839506172839,0,0)" xlink:href="#aH"/><use transform="matrix(0.06172839506172839,0,0,0.06172839506172839,15.987654320987653,0)" xlink:href="#aI"/><use transform="matrix(0.06172839506172839,0,0,0.06172839506172839,28.333333333333332,0)" xlink:href="#aJ"/><use transform="matrix(0.06172839506172839,0,0,0.06172839506172839,33.20987654320987,0)" xlink:href="#aJ"/></g><path fill="#333" d="M127-220V0H93v-220H8v-28h204v28h-85" id="aK"/><path fill="#333" d="M114-163C36-179 61-72 57 0H25l-1-190h30c1 12-1 29 2 39 6-27 23-49 58-41v29" id="aL"/><path fill="#333" d="M117-194c89-4 53 116 60 194h-32v-121c0-31-8-49-39-48C34-167 62-67 57 0H25l-1-190h30c1 10-1 24 2 32 11-22 29-35 61-36" id="aM"/><path fill="#333" d="M135-143c-3-34-86-38-87 0 15 53 115 12 119 90S17 21 10-45l28-5c4 36 97 45 98 0-10-56-113-15-118-90-4-57 82-63 122-42 12 7 21 19 24 35" id="aN"/><path fill="#333" d="M101-234c-31-9-42 10-38 44h38v23H63V0H32v-167H5v-23h27c-7-52 17-82 69-68v24" id="aO"/><g id="M"><use transform="matrix(0.06172839506172839,0,0,0.06172839506172839,0,0)" xlink:href="#aK"/><use transform="matrix(0.06172839506172839,0,0,0.06172839506172839,12.716049382716047,0)" xlink:href="#aL"/><use transform="matrix(0.06172839506172839,0,0,0.06172839506172839,20.061728395061728,0)" xlink:href="#aI"/><use transform="matrix(0.06172839506172839,0,0,0.06172839506172839,32.407407407407405,0)" xlink:href="#aM"/><use transform="matrix(0.06172839506172839,0,0,0.06172839506172839,44.75308641975308,0)" xlink:href="#aN"/><use transform="matrix(0.06172839506172839,0,0,0.06172839506172839,55.86419753086419,0)" xlink:href="#aO"/><use transform="matrix(0.06172839506172839,0,0,0.06172839506172839,62.03703703703703,0)" xlink:href="#aD"/><use transform="matrix(0.06172839506172839,0,0,0.06172839506172839,74.38271604938271,0)" xlink:href="#aL"/></g><path fill="#333" d="M185-189c-5-48-123-54-124 2 14 75 158 14 163 119 3 78-121 87-175 55-17-10-28-26-33-46l33-7c5 56 141 63 141-1 0-78-155-14-162-118-5-82 145-84 179-34 5 7 8 16 11 25" id="aP"/><path fill="#333" d="M24-231v-30h32v30H24zM24 0v-190h32V0H24" id="aQ"/><g id="N"><use transform="matrix(0.06172839506172839,0,0,0.06172839506172839,0,0)" xlink:href="#aP"/><use transform="matrix(0.06172839506172839,0,0,0.06172839506172839,14.814814814814813,0)" xlink:href="#aD"/><use transform="matrix(0.06172839506172839,0,0,0.06172839506172839,27.160493827160494,0)" xlink:href="#aN"/><use transform="matrix(0.06172839506172839,0,0,0.06172839506172839,38.27160493827161,0)" xlink:href="#aN"/><use transform="matrix(0.06172839506172839,0,0,0.06172839506172839,49.38271604938272,0)" xlink:href="#aQ"/><use transform="matrix(0.06172839506172839,0,0,0.06172839506172839,54.25925925925927,0)" xlink:href="#aB"/><use transform="matrix(0.06172839506172839,0,0,0.06172839506172839,66.60493827160495,0)" xlink:href="#aM"/></g><path fill="#333" d="M59-47c-2 24 18 29 38 22v24C64 9 27 4 27-40v-127H5v-23h24l9-43h21v43h35v23H59v120" id="aR"/><g id="O"><use transform="matrix(0.06172839506172839,0,0,0.06172839506172839,0,0)" xlink:href="#aG"/><use transform="matrix(0.06172839506172839,0,0,0.06172839506172839,6.172839506172839,0)" xlink:href="#aM"/><use transform="matrix(0.06172839506172839,0,0,0.06172839506172839,18.51851851851852,0)" xlink:href="#aQ"/><use transform="matrix(0.06172839506172839,0,0,0.06172839506172839,23.395061728395063,0)" xlink:href="#aR"/><use transform="matrix(0.06172839506172839,0,0,0.06172839506172839,29.567901234567902,0)" xlink:href="#aQ"/><use transform="matrix(0.06172839506172839,0,0,0.06172839506172839,34.44444444444444,0)" xlink:href="#aI"/><use transform="matrix(0.06172839506172839,0,0,0.06172839506172839,46.79012345679012,0)" xlink:href="#aR"/><use transform="matrix(0.06172839506172839,0,0,0.06172839506172839,52.96296296296296,0)" xlink:href="#aQ"/><use transform="matrix(0.06172839506172839,0,0,0.06172839506172839,57.839506172839506,0)" xlink:href="#aB"/><use transform="matrix(0.06172839506172839,0,0,0.06172839506172839,70.18518518518519,0)" xlink:href="#aM"/></g><path fill="#333" d="M30-248c118-7 216 8 213 122C240-48 200 0 122 0H30v-248zM63-27c89 8 146-16 146-99s-60-101-146-95v194" id="aS"/><g id="P"><use transform="matrix(0.06172839506172839,0,0,0.06172839506172839,0,0)" xlink:href="#aS"/><use transform="matrix(0.06172839506172839,0,0,0.06172839506172839,15.987654320987653,0)" xlink:href="#aI"/><use transform="matrix(0.06172839506172839,0,0,0.06172839506172839,28.333333333333332,0)" xlink:href="#aR"/><use transform="matrix(0.06172839506172839,0,0,0.06172839506172839,34.50617283950617,0)" xlink:href="#aI"/></g><g id="Q"><use transform="matrix(0.06172839506172839,0,0,0.06172839506172839,0,0)" xlink:href="#aK"/><use transform="matrix(0.06172839506172839,0,0,0.06172839506172839,12.716049382716047,0)" xlink:href="#aL"/><use transform="matrix(0.06172839506172839,0,0,0.06172839506172839,20.061728395061728,0)" xlink:href="#aI"/><use transform="matrix(0.06172839506172839,0,0,0.06172839506172839,32.407407407407405,0)" xlink:href="#aM"/><use transform="matrix(0.06172839506172839,0,0,0.06172839506172839,44.75308641975308,0)" xlink:href="#aN"/><use transform="matrix(0.06172839506172839,0,0,0.06172839506172839,55.86419753086419,0)" xlink:href="#aO"/><use transform="matrix(0.06172839506172839,0,0,0.06172839506172839,62.03703703703703,0)" xlink:href="#aD"/><use transform="matrix(0.06172839506172839,0,0,0.06172839506172839,74.38271604938271,0)" xlink:href="#aL"/></g><path d="M185-189c-5-48-123-54-124 2 14 75 158 14 163 119 3 78-121 87-175 55-17-10-28-26-33-46l33-7c5 56 141 63 141-1 0-78-155-14-162-118-5-82 145-84 179-34 5 7 8 16 11 25" id="aT"/><path d="M33-154v-36h34v36H33zM33 0v-36h34V0H33" id="aU"/><g id="R"><use transform="matrix(0.05,0,0,0.05,0,0)" xlink:href="#aT"/><use transform="matrix(0.05,0,0,0.05,12,0)" xlink:href="#ae"/><use transform="matrix(0.05,0,0,0.05,17,0)" xlink:href="#X"/><use transform="matrix(0.05,0,0,0.05,27,0)" xlink:href="#ag"/><use transform="matrix(0.05,0,0,0.05,32.95,0)" xlink:href="#ah"/><use transform="matrix(0.05,0,0,0.05,42.95,0)" xlink:href="#ar"/><use transform="matrix(0.05,0,0,0.05,52.95,0)" xlink:href="#Z"/><use transform="matrix(0.05,0,0,0.05,62.95,0)" xlink:href="#aU"/></g><g id="S"><use transform="matrix(0.05,0,0,0.05,0,0)" xlink:href="#af"/><use transform="matrix(0.05,0,0,0.05,10,0)" xlink:href="#Z"/><use transform="matrix(0.05,0,0,0.05,20,0)" xlink:href="#ag"/><use transform="matrix(0.05,0,0,0.05,25.950000000000003,0)" xlink:href="#ax"/></g><g id="T"><use transform="matrix(0.05,0,0,0.05,0,0)" xlink:href="#ax"/><use transform="matrix(0.05,0,0,0.05,14.950000000000001,0)" xlink:href="#X"/><use transform="matrix(0.05,0,0,0.05,24.950000000000003,0)" xlink:href="#aj"/><use transform="matrix(0.05,0,0,0.05,34.95,0)" xlink:href="#W"/><use transform="matrix(0.05,0,0,0.05,44.95,0)" xlink:href="#ae"/></g><g id="U"><use transform="matrix(0.05,0,0,0.05,0,0)" xlink:href="#X"/><use transform="matrix(0.05,0,0,0.05,10,0)" xlink:href="#ag"/></g><g id="V"><use transform="matrix(0.05,0,0,0.05,0,0)" xlink:href="#X"/><use transform="matrix(0.05,0,0,0.05,10,0)" xlink:href="#ay"/><use transform="matrix(0.05,0,0,0.05,20,0)" xlink:href="#aq"/><use transform="matrix(0.05,0,0,0.05,23.95,0)" xlink:href="#Z"/><use transform="matrix(0.05,0,0,0.05,33.95,0)" xlink:href="#ai"/><use transform="matrix(0.05,0,0,0.05,42.95,0)" xlink:href="#ae"/></g></defs></g></svg>